#!OML:ASF I:\golf\golf\golf 2\Subject 1\2002-09-07\Subject1.ASF
:FULLY-SPECIFIED
:DEGREES
218
root -0.783891 17.5507 -4.55714 31.8222 23.7299 1.2679
lowerback 25.2069 4.77886 0.910407
upperback 11.9279 6.83759 8.20447
thorax -1.65196 3.24601 6.63138
lowerneck -14.8364 -8.02239 -2.05236
upperneck 22.8559 -9.76901 -2.5257
head 9.64487 -4.86394 -1.73888
rclavicle -2.8625e-014 2.38542e-014
rhumerus 16.6225 13.7459 -62.4265
rradius 30.4326
rwrist -14.2229
rhand -26.1569 15.0703
rfingers 7.12502
rthumb 0.394227 -14.9091
lclavicle -2.8625e-014 2.38542e-014
lhumerus -34.0263 -49.368 103.303
lradius 63.8218
lwrist -1.77957
lhand -32.2091 13.2813
lfingers 7.12502
lthumb -5.45064 43.1912
rfemur -62.5215 -7.18674 24.301
rtibia 36.2128
rfoot -3.1298 -3.70811
rtoes 5.40472
lfemur -39.9029 -4.2854 -9.15717
ltibia 32.4076
lfoot -23.7705 -10.1955
ltoes -13.281
219
root -0.838029 17.5432 -4.49972 32.3616 23.9736 1.46774
lowerback 25.9158 4.63559 1.34484
upperback 12.0944 6.76036 8.07972
thorax -1.73165 3.21901 6.23599
lowerneck -14.9372 -8.03429 -2.07084
upperneck 22.3328 -9.84821 -2.25615
head 9.49523 -4.88087 -1.64219
rclavicle 4.77083e-014 -2.14687e-014
rhumerus 18.0267 13.4766 -62.1787
rradius 29.5801
rwrist -13.1846
rhand -25.8695 15.2111
rfingers 7.12502
rthumb 0.671753 -14.7676
lclavicle 4.77083e-014 -2.14687e-014
lhumerus -33.5807 -50.4294 102.811
lradius 63.9651
lwrist -1.64842
lhand -32.1524 13.9197
lfingers 7.12502
lthumb -5.39584 43.831
rfemur -63.2633 -7.31788 24.6042
rtibia 36.7859
rfoot -3.17389 -3.68348
rtoes 7.16638
lfemur -40.2738 -4.01077 -9.08226
ltibia 32.316
lfoot -23.7523 -10.5194
ltoes -12.9552
220
root -0.880694 17.516 -4.46501 33.6714 24.5661 2.10646
lowerback 25.6194 4.39077 1.63135
upperback 12.3706 6.49394 8.15102
thorax -1.23105 3.09522 6.26151
lowerneck -15.138 -8.0967 -2.10566
upperneck 21.5293 -9.93748 -2.21816
head 9.25503 -4.93461 -1.61776
rclavicle 9.85972e-014 4.05521e-014
rhumerus 19.802 13.1913 -61.3071
rradius 28.8543
rwrist -12.5948
rhand -25.3754 15.038
rfingers 7.12502
rthumb 1.14905 -14.9387
lclavicle 9.85972e-014 4.05521e-014
lhumerus -32.5142 -51.4865 102.246
lradius 64.114
lwrist -1.1178
lhand -31.886 14.5896
lfingers 7.12502
lthumb -5.13869 44.5073
rfemur -64.7883 -7.88337 24.6856
rtibia 37.3556
rfoot -3.03739 -3.67453
rtoes 8.44598
lfemur -41.5643 -4.19128 -9.17296
ltibia 32.2857
lfoot -23.5648 -10.73
ltoes -12.8158
221
root -0.943755 17.5072 -4.39921 34.3777 24.7373 2.50756
lowerback 25.8125 4.51086 1.4119
upperback 12.8468 6.58897 8.26847
thorax -0.833721 3.12452 6.50904
lowerneck -15.5509 -8.18204 -1.92663
upperneck 20.7903 -10.1076 -2.18391
head 9.0643 -5.00872 -1.64955
rclavicle 5.08889e-014 9.54166e-015
rhumerus 21.5536 12.4109 -60.776
rradius 28.0985
rwrist -11.8687
rhand -24.8066 14.847
rfingers 7.12502
rthumb 1.69832 -15.126
lclavicle 5.08889e-014 9.54166e-015
lhumerus -31.4683 -52.7721 101.571
lradius 64.2629
lwrist -1.29658
lhand -32.6519 14.4904
lfingers 7.12502
lthumb -5.87812 44.3888
rfemur -65.5243 -7.75945 24.5179
rtibia 37.881
rfoot -3.1267 -3.9901
rtoes 9.08076
lfemur -42.0149 -3.86528 -9.36605
ltibia 32.2613
lfoot -23.9798 -10.3231
ltoes -15.3522
222
root -1.0009 17.4923 -4.3415 35.2041 25.0458 2.75851
lowerback 25.9156 4.5951 1.55129
upperback 13.207 6.71681 8.40336
thorax -0.490831 3.18346 6.56156
lowerneck -15.868 -8.31466 -1.88225
upperneck 20.0234 -10.3517 -1.96228
head 8.86644 -5.1086 -1.60225
rclavicle -3.18055e-015 -1.03368e-014
rhumerus 23.1281 11.3135 -60.4455
rradius 27.2812
rwrist -10.95
rhand -24.1735 14.5488
rfingers 7.12502
rthumb 2.30984 -15.4184
lclavicle -3.18055e-015 -1.03368e-014
lhumerus -30.6048 -54.1817 101.008
lradius 64.622
lwrist -1.31295
lhand -33.5923 14.3551
lfingers 7.12502
lthumb -6.786 44.2263
rfemur -66.4632 -7.72621 24.6535
rtibia 38.3617
rfoot -3.22139 -4.28162
rtoes 9.39674
lfemur -42.7183 -3.41552 -9.40693
ltibia 32.2812
lfoot -24.2888 -9.83886
ltoes -18.1285
223
root -1.05044 17.477 -4.28251 35.9206 25.2388 2.99409
lowerback 26.1325 4.68762 1.66631
upperback 13.6298 6.85197 8.56967
thorax -0.135829 3.24257 6.66019
lowerneck -16.2031 -8.41792 -2.07273
upperneck 19.2076 -10.5095 -1.67007
head 8.67547 -5.17967 -1.48595
rclavicle 2.8625e-014 -1.90833e-014
rhumerus 24.817 10.5448 -59.76
rradius 26.5903
rwrist -10.5507
rhand -23.7347 14.1154
rfingers 7.12502
rthumb 2.73357 -15.8468
lclavicle 2.8625e-014 -1.90833e-014
lhumerus -29.44 -55.3528 100.292
lradius 64.6126
lwrist -1.52851
lhand -34.2645 15.0191
lfingers 7.12502
lthumb -7.43492 44.8684
rfemur -67.2559 -7.74248 24.8377
rtibia 38.7644
rfoot -3.35099 -4.38229
rtoes 9.37934
lfemur -43.2353 -3.0504 -9.44828
ltibia 32.267
lfoot -24.3345 -9.60081
ltoes -18.6558
224
root -1.10562 17.4755 -4.21494 36.1979 25.1818 3.08146
lowerback 26.7993 4.89742 1.43381
upperback 14.2482 7.07737 8.87194
thorax 0.170493 3.32046 7.0717
lowerneck -16.8803 -8.446 -2.43015
upperneck 18.537 -10.4721 -1.56396
head 8.59465 -5.18735 -1.40411
rclavicle 6.04305e-014 8.26944e-014
rhumerus 26.8447 10.2325 -58.6153
rradius 26.0096
rwrist -10.6434
rhand -23.6107 13.7303
rfingers 7.12502
rthumb 2.8533 -16.2304
lclavicle 6.04305e-014 8.26944e-014
lhumerus -27.8469 -55.9744 99.3363
lradius 64.5149
lwrist -1.96667
lhand -34.768 15.7705
lfingers 7.12502
lthumb -7.92087 45.6021
rfemur -67.5364 -7.46916 24.9047
rtibia 39.1297
rfoot -3.59411 -4.51928
rtoes 9.55582
lfemur -43.241 -2.51296 -9.51569
ltibia 32.3461
lfoot -24.3145 -9.40064
ltoes -17.3298
225
root -1.15822 17.4706 -4.15257 36.8866 25.5325 3.35603
lowerback 27.0345 4.72131 1.27413
upperback 15.4723 6.80871 9.44112
thorax 1.4239 3.12997 7.96985
lowerneck -20.0933 -8.4749 -3.52617
upperneck 18.2603 -10.1178 -1.57655
head 9.12708 -5.09911 -1.3427
rclavicle -4.77083e-014 -4.81059e-014
rhumerus 30.6916 10.2773 -56.4544
rradius 25.5319
rwrist -11.1203
rhand -23.4133 12.9532
rfingers 7.12502
rthumb 3.04401 -17.0048
lclavicle -4.77083e-014 -4.81059e-014
lhumerus -23.4871 -55.64 96.6093
lradius 64.416
lwrist -2.17811
lhand -35.581 16.2461
lfingers 7.12502
lthumb -8.70552 46.0466
rfemur -68.1724 -7.37897 24.8519
rtibia 39.4977
rfoot -3.84088 -4.98383
rtoes 10.1595
lfemur -43.7809 -2.23445 -9.53068
ltibia 32.5391
lfoot -24.1131 -8.90681
ltoes -16.1644
226
root -1.20206 17.4492 -4.10636 38.1588 26.0753 3.91805
lowerback 26.8418 4.60651 1.47398
upperback 15.5246 6.71389 9.64786
thorax 1.58504 3.08587 8.13414
lowerneck -19.3185 -8.66128 -3.68022
upperneck 17.0069 -10.3989 -1.4286
head 8.57941 -5.24287 -1.23173
rclavicle -6.36111e-015 -3.97569e-015
rhumerus 31.8794 9.73582 -55.7597
rradius 25.0825
rwrist -10.9282
rhand -22.8927 12.1828
rfingers 7.12502
rthumb 3.54672 -17.7674
lclavicle -6.36111e-015 -3.97569e-015
lhumerus -23.2413 -56.3261 96.6463
lradius 64.3881
lwrist -2.34157
lhand -36.5359 16.7003
lfingers 7.12502
lthumb -9.62693 46.4603
rfemur -69.4211 -7.64009 24.7928
rtibia 39.8387
rfoot -3.93968 -5.37364
rtoes 10.9686
lfemur -44.9508 -2.24627 -9.65061
ltibia 32.75
lfoot -23.9458 -7.56126
ltoes -16.8706
